<?xml version="1.0" encoding="UTF-8" standalone="no"?>
<svg
   xmlns:dc="http://purl.org/dc/elements/1.1/"
   xmlns:cc="http://creativecommons.org/ns#"
   xmlns:rdf="http://www.w3.org/1999/02/22-rdf-syntax-ns#"
   xmlns:svg="http://www.w3.org/2000/svg"
   xmlns="http://www.w3.org/2000/svg"
   xmlns:sodipodi="http://sodipodi.sourceforge.net/DTD/sodipodi-0.dtd"
   xmlns:inkscape="http://www.inkscape.org/namespaces/inkscape"
   width="81.116302mm"
   height="81.116302mm"
   viewBox="0 0 81.116303 81.116303"
   version="1.1"
   id="svg8"
   inkscape:version="1.0.1 (3bc2e813f5, 2020-09-07)"
   sodipodi:docname="quarkworks.svg"
   inkscape:export-filename="C:\Users\bbr_b\Desktop\quark works.png"
   inkscape:export-xdpi="297.83939"
   inkscape:export-ydpi="297.83939">
  <defs
     id="defs2" />
  <sodipodi:namedview
     id="base"
     pagecolor="#a4a29b"
     bordercolor="#666666"
     borderopacity="1.0"
     inkscape:pageopacity="0.57647059"
     inkscape:pageshadow="2"
     inkscape:zoom="1.656983"
     inkscape:cx="155.63158"
     inkscape:cy="109.38111"
     inkscape:document-units="mm"
     inkscape:current-layer="layer1"
     inkscape:document-rotation="0"
     showgrid="false"
     inkscape:window-width="1416"
     inkscape:window-height="1198"
     inkscape:window-x="260"
     inkscape:window-y="415"
     inkscape:window-maximized="0"
     showguides="false" />
  <metadata
     id="metadata5">
    <rdf:RDF>
      <cc:Work
         rdf:about="">
        <dc:format>image/svg+xml</dc:format>
        <dc:type
           rdf:resource="http://purl.org/dc/dcmitype/StillImage" />
        <dc:title></dc:title>
      </cc:Work>
    </rdf:RDF>
  </metadata>
  <g
     inkscape:label="Layer 1"
     inkscape:groupmode="layer"
     id="layer1"
     transform="translate(-21.270939,-107.5132)">
    <g
       aria-label="qw"
       id="text840"
       style="font-size:63.8948px;line-height:1.25;font-family:'Source Code Pro';-inkscape-font-specification:'Source Code Pro';text-align:center;text-anchor:middle;fill:#44bba4;fill-opacity:1;stroke-width:1.59737">
      <g
         id="g84"
         style="opacity:1">
        <path
           style="color:#000000;font-style:normal;font-variant:normal;font-weight:normal;font-stretch:normal;font-size:medium;line-height:1.25;font-family:'Source Code Pro';-inkscape-font-specification:'Source Code Pro';font-variant-ligatures:normal;font-variant-position:normal;font-variant-caps:normal;font-variant-numeric:normal;font-variant-alternates:normal;font-variant-east-asian:normal;font-feature-settings:normal;font-variation-settings:normal;text-indent:0;text-align:center;text-decoration:none;text-decoration-line:none;text-decoration-style:solid;text-decoration-color:#000000;letter-spacing:normal;word-spacing:normal;text-transform:none;writing-mode:lr-tb;direction:ltr;text-orientation:mixed;dominant-baseline:auto;baseline-shift:baseline;text-anchor:middle;white-space:normal;shape-padding:0;shape-margin:0;inline-size:0;clip-rule:nonzero;display:inline;overflow:visible;visibility:visible;isolation:auto;mix-blend-mode:normal;color-interpolation:sRGB;color-interpolation-filters:linearRGB;solid-color:#000000;solid-opacity:1;vector-effect:none;fill:#44bba4;fill-opacity:1;fill-rule:nonzero;stroke-width:1.59737;stroke-linecap:butt;stroke-linejoin:miter;stroke-miterlimit:4;stroke-dasharray:none;stroke-dashoffset:0;stroke-opacity:1.0;color-rendering:auto;image-rendering:auto;shape-rendering:auto;text-rendering:auto;enable-background:accumulate;stop-color:#000000;stop-opacity:1;stroke:none;"
           d="m 51.172321,178.00806 v -11.30938 l 0.255579,-5.75054 h -0.191684 c -1.277896,1.32049 -2.790073,2.4493 -4.536531,3.38643 -1.703861,0.89453 -3.514214,1.34179 -5.431058,1.34179 -2.002037,0 -3.833687,-0.36207 -5.494952,-1.08621 -1.661265,-0.72414 -3.088249,-1.76776 -4.280952,-3.13085 -1.150106,-1.40569 -2.044633,-3.10955 -2.683581,-5.11158 -0.638948,-2.00204 -0.958422,-4.30225 -0.958422,-6.90064 0,-2.51319 0.383369,-4.77081 1.150106,-6.77285 0.809334,-2.04463 1.852949,-3.76979 3.130845,-5.17548 1.320493,-1.40568 2.83267,-2.49189 4.536531,-3.25863 1.703861,-0.76674 3.471617,-1.15011 5.303268,-1.15011 1.916844,0 3.620705,0.36207 5.111584,1.08621 1.490879,0.72415 2.981757,1.76776 4.472636,3.13085 h 0.191684 l 0.447264,-3.45032 h 4.217056 v 44.15131 z m -8.753587,-16.74044 c 3.06695,0 5.984812,-1.55477 8.753587,-4.66432 v -15.46254 c -1.405685,-1.32049 -2.790073,-2.25762 -4.153162,-2.81137 -1.320493,-0.55376 -2.662283,-0.83064 -4.025372,-0.83064 -1.363089,0 -2.640985,0.29818 -3.833688,0.89453 -1.150107,0.55375 -2.172423,1.36309 -3.06695,2.428 -0.851931,1.02232 -1.533475,2.25762 -2.044634,3.7059 -0.511159,1.44828 -0.766738,3.06695 -0.766738,4.85601 0,3.74849 0.788036,6.66635 2.364108,8.75358 1.618668,2.08723 3.876284,3.13085 6.772849,3.13085 z"
           id="path86" />
        <path
           style="color:#000000;font-style:normal;font-variant:normal;font-weight:normal;font-stretch:normal;font-size:medium;line-height:1.25;font-family:'Source Code Pro';-inkscape-font-specification:'Source Code Pro';font-variant-ligatures:normal;font-variant-position:normal;font-variant-caps:normal;font-variant-numeric:normal;font-variant-alternates:normal;font-variant-east-asian:normal;font-feature-settings:normal;font-variation-settings:normal;text-indent:0;text-align:center;text-decoration:none;text-decoration-line:none;text-decoration-style:solid;text-decoration-color:#000000;letter-spacing:normal;word-spacing:normal;text-transform:none;writing-mode:lr-tb;direction:ltr;text-orientation:mixed;dominant-baseline:auto;baseline-shift:baseline;text-anchor:middle;white-space:normal;shape-padding:0;shape-margin:0;inline-size:0;clip-rule:nonzero;display:inline;overflow:visible;visibility:visible;isolation:auto;mix-blend-mode:normal;color-interpolation:sRGB;color-interpolation-filters:linearRGB;solid-color:#000000;solid-opacity:1;vector-effect:none;fill-opacity:1;fill-rule:nonzero;stroke-width:1.59737;stroke-linecap:butt;stroke-linejoin:miter;stroke-miterlimit:4;stroke-dasharray:none;stroke-dashoffset:0;stroke-opacity:1.0;color-rendering:auto;image-rendering:auto;shape-rendering:auto;text-rendering:auto;enable-background:accumulate;stop-color:#000000;stop-opacity:1;stroke:none;"
           d="M 41.970703 132.29102 C 40.027608 132.29102 38.141372 132.70103 36.339844 133.51172 C 34.539831 134.32173 32.937075 135.47337 31.548828 136.95117 L 31.544922 136.95703 L 31.541016 136.96094 C 30.189919 138.44714 29.097038 140.26071 28.257812 142.38086 L 28.255859 142.38477 L 28.255859 142.38867 C 27.449202 144.49495 27.052734 146.85285 27.052734 149.44727 C 27.052734 152.11112 27.379451 154.49246 28.048828 156.58984 C 28.713516 158.67253 29.65312 160.47143 30.875 161.96484 L 30.882812 161.97461 L 30.892578 161.98438 C 32.160138 163.43302 33.68972 164.55275 35.455078 165.32227 C 37.224075 166.09337 39.171199 166.47461 41.269531 166.47461 C 43.310615 166.47461 45.257312 165.99284 47.070312 165.04102 L 47.074219 165.04102 L 47.078125 165.03906 C 48.412869 164.32286 49.483087 163.37465 50.5625 162.43555 L 50.373047 166.68164 L 50.373047 178.80664 L 51.171875 178.80664 L 57.210938 178.80664 L 57.210938 133.05859 L 51.492188 133.05859 L 51.107422 136.02734 C 49.890454 135.02492 48.672607 134.05979 47.431641 133.45703 C 45.819759 132.67412 43.988122 132.29102 41.970703 132.29102 z M 41.970703 133.88867 C 43.786972 133.88867 45.364499 134.22916 46.734375 134.89453 C 48.142214 135.57834 49.572566 136.57533 51.017578 137.89648 L 51.246094 138.10547 L 52.449219 138.10547 L 52.896484 134.65625 L 55.613281 134.65625 L 55.613281 177.20898 L 51.970703 177.20898 L 51.970703 166.7168 L 52.263672 160.15039 L 50.898438 160.15039 L 50.662109 160.39258 C 49.446579 161.64863 48.00558 162.72606 46.328125 163.62695 C 46.327572 163.62724 46.326725 163.62666 46.326172 163.62695 C 44.731949 164.4636 43.061513 164.87695 41.269531 164.87695 C 39.36379 164.87695 37.647282 164.5346 36.09375 163.85742 C 34.541751 163.18091 33.220966 162.21656 32.105469 160.94531 C 31.029982 159.62871 30.182384 158.02329 29.570312 156.10547 C 28.961793 154.19877 28.648438 151.98019 28.648438 149.44727 C 28.648438 147.01913 29.01959 144.86438 29.744141 142.96875 C 30.522977 141.00116 31.517269 139.36368 32.720703 138.03906 C 32.721639 138.03803 32.721721 138.03619 32.722656 138.03516 C 33.973037 136.70665 35.392524 135.69036 36.996094 134.96875 C 38.602288 134.24596 40.250497 133.88867 41.970703 133.88867 z M 42.994141 136.69922 C 41.517322 136.69922 40.11009 137.02936 38.810547 137.67773 C 37.55505 138.28313 36.440284 139.16633 35.482422 140.30664 L 35.480469 140.30859 L 35.480469 140.31055 C 34.560085 141.41501 33.832799 142.73774 33.294922 144.26172 C 32.749411 145.80733 32.482422 147.51769 32.482422 149.38281 C 32.482422 153.24324 33.293183 156.34647 35.007812 158.61719 L 35.011719 158.62305 L 35.015625 158.62695 C 36.775676 160.8965 39.329563 162.06641 42.417969 162.06641 C 45.754845 162.06641 48.90336 160.3537 51.769531 157.13477 L 51.970703 156.9082 L 51.970703 140.79492 L 51.71875 140.55859 C 50.262156 139.19028 48.80514 138.1951 47.328125 137.59375 C 47.327515 137.59349 47.326782 137.59401 47.326172 137.59375 C 45.915869 137.00259 44.46475 136.69922 42.994141 136.69922 z M 42.994141 138.29688 C 44.249073 138.29688 45.480829 138.55055 46.710938 139.06641 L 46.714844 139.06836 L 46.71875 139.07031 C 47.884909 139.54406 49.113458 140.40991 50.373047 141.55078 L 50.373047 156.24023 C 47.76814 159.086 45.144445 160.46875 42.417969 160.46875 C 39.714349 160.46875 37.756372 159.55178 36.279297 157.64844 C 36.278694 157.64766 36.277947 157.64726 36.277344 157.64648 C 34.843917 155.74312 34.080078 153.01402 34.080078 149.38281 C 34.080078 147.66982 34.323975 146.14392 34.800781 144.79297 C 35.284687 143.42191 35.922788 142.27553 36.705078 141.33594 C 37.53503 140.3479 38.463135 139.61533 39.505859 139.11328 L 39.511719 139.10938 L 39.517578 139.10742 C 40.601425 138.5655 41.747527 138.29688 42.994141 138.29688 z "
           id="path88" />
      </g>
      <g
         id="g90"
         style="opacity:1">
        <path
           style="color:#000000;font-style:normal;font-variant:normal;font-weight:normal;font-stretch:normal;font-size:medium;line-height:1.25;font-family:'Source Code Pro';-inkscape-font-specification:'Source Code Pro';font-variant-ligatures:normal;font-variant-position:normal;font-variant-caps:normal;font-variant-numeric:normal;font-variant-alternates:normal;font-variant-east-asian:normal;font-feature-settings:normal;font-variation-settings:normal;text-indent:0;text-align:center;text-decoration:none;text-decoration-line:none;text-decoration-style:solid;text-decoration-color:#000000;letter-spacing:normal;word-spacing:normal;text-transform:none;writing-mode:lr-tb;direction:ltr;text-orientation:mixed;dominant-baseline:auto;baseline-shift:baseline;text-anchor:middle;white-space:normal;shape-padding:0;shape-margin:0;inline-size:0;clip-rule:nonzero;display:inline;overflow:visible;visibility:visible;isolation:auto;mix-blend-mode:normal;color-interpolation:sRGB;color-interpolation-filters:linearRGB;solid-color:#000000;solid-opacity:1;vector-effect:none;fill:#44bba4;fill-opacity:1;fill-rule:nonzero;stroke-width:1.59737;stroke-linecap:butt;stroke-linejoin:miter;stroke-miterlimit:4;stroke-dasharray:none;stroke-dashoffset:0;stroke-opacity:1.0;color-rendering:auto;image-rendering:auto;shape-rendering:auto;text-rendering:auto;enable-background:accumulate;stop-color:#000000;stop-opacity:1;stroke:none;"
           d="m 69.637819,164.90962 -6.772848,-31.05287 h 5.239373 l 3.705898,18.01833 c 0.298176,1.49088 0.553755,2.91786 0.766738,4.28095 0.212983,1.36309 0.425965,2.79008 0.638948,4.28096 h 0.255579 c 0.212983,-1.49088 0.468562,-2.91787 0.766738,-4.28096 0.340772,-1.40568 0.681544,-2.83266 1.022317,-4.28095 l 3.833687,-16.10149 h 5.239374 l 3.705898,16.10149 c 0.340773,1.49088 0.681545,2.91786 1.022317,4.28095 0.383369,1.36309 0.681544,2.79008 0.894527,4.28096 h 0.255579 c 0.255579,-1.49088 0.468562,-2.91787 0.638948,-4.28096 0.212983,-1.36309 0.468562,-2.79007 0.766738,-4.28095 l 3.705898,-18.01833 h 4.856002 l -6.645056,31.05287 h -6.772849 l -3.578109,-14.82359 c -0.511158,-2.17243 -1.022316,-5.23938 -1.533475,-9.20085 h -0.255579 c -0.511158,3.96147 -1.022316,7.02842 -1.533475,9.20085 l -3.450319,14.82359 z"
           id="path92" />
        <path
           style="color:#000000;font-style:normal;font-variant:normal;font-weight:normal;font-stretch:normal;font-size:medium;line-height:1.25;font-family:'Source Code Pro';-inkscape-font-specification:'Source Code Pro';font-variant-ligatures:normal;font-variant-position:normal;font-variant-caps:normal;font-variant-numeric:normal;font-variant-alternates:normal;font-variant-east-asian:normal;font-feature-settings:normal;font-variation-settings:normal;text-indent:0;text-align:center;text-decoration:none;text-decoration-line:none;text-decoration-style:solid;text-decoration-color:#000000;letter-spacing:normal;word-spacing:normal;text-transform:none;writing-mode:lr-tb;direction:ltr;text-orientation:mixed;dominant-baseline:auto;baseline-shift:baseline;text-anchor:middle;white-space:normal;shape-padding:0;shape-margin:0;inline-size:0;clip-rule:nonzero;display:inline;overflow:visible;visibility:visible;isolation:auto;mix-blend-mode:normal;color-interpolation:sRGB;color-interpolation-filters:linearRGB;solid-color:#000000;solid-opacity:1;vector-effect:none;fill-opacity:1;fill-rule:nonzero;stroke-width:1.59737;stroke-linecap:butt;stroke-linejoin:miter;stroke-miterlimit:4;stroke-dasharray:none;stroke-dashoffset:0;stroke-opacity:1.0;color-rendering:auto;image-rendering:auto;shape-rendering:auto;text-rendering:auto;enable-background:accumulate;stop-color:#000000;stop-opacity:1;stroke:none;"
           d="M 61.873047 133.05859 L 68.994141 165.70898 L 69.638672 165.70898 L 77.044922 165.70898 L 80.638672 150.26953 L 80.638672 150.26758 C 80.936682 149.00082 81.229849 146.80744 81.523438 144.97266 C 81.817114 146.80795 82.108149 149.0026 82.40625 150.26953 L 82.40625 150.27148 L 86.132812 165.70898 L 94.179688 165.70898 L 101.16797 133.05859 L 94.671875 133.05859 L 90.833984 151.7168 L 90.833984 151.71875 C 90.5338 153.21967 90.277402 154.65783 90.0625 156.0332 L 90.060547 156.04492 L 90.058594 156.05664 C 90.036002 156.23737 89.99677 156.44193 89.972656 156.625 C 89.917432 156.41089 89.895181 156.17415 89.835938 155.96289 L 89.830078 155.93945 C 89.492598 154.58884 89.156156 153.17513 88.818359 151.69727 L 84.96875 134.97461 L 78.462891 134.97461 L 74.482422 151.69141 C 74.142049 153.13799 73.803227 154.56487 73.462891 155.96875 L 73.458984 155.97656 L 73.458984 155.98633 C 73.437591 156.08413 73.425253 156.19455 73.404297 156.29297 C 73.391366 156.20974 73.378165 156.11596 73.365234 156.0332 C 73.150332 154.65783 72.893934 153.21967 72.59375 151.71875 L 72.59375 151.7168 L 68.755859 133.05859 L 61.873047 133.05859 z M 63.855469 134.65625 L 67.453125 134.65625 L 71.027344 152.03516 C 71.323172 153.51456 71.576235 154.9297 71.787109 156.2793 C 71.999504 157.63863 72.21325 159.06306 72.425781 160.55078 L 72.523438 161.23633 L 74.164062 161.23633 L 74.261719 160.55078 C 74.471259 159.084 74.72158 157.68116 75.013672 156.34375 L 75.017578 156.33008 C 75.017841 156.32888 75.017315 156.32737 75.017578 156.32617 C 75.357244 154.92488 75.697478 153.50396 76.037109 152.06055 L 76.037109 152.05859 L 79.724609 136.57227 L 83.697266 136.57227 L 87.261719 152.05469 C 87.603449 153.5497 87.94506 154.98141 88.287109 156.34961 L 88.289062 156.36133 L 88.292969 156.37305 C 88.666227 157.70019 88.957702 159.09258 89.166016 160.55078 L 89.263672 161.23633 L 90.884766 161.23633 L 91 160.57227 C 91.257434 159.07056 91.470541 157.63216 91.642578 156.25586 L 91.640625 156.2793 C 91.8515 154.9297 92.104562 153.51456 92.400391 152.03516 L 92.400391 152.03125 L 95.974609 134.65625 L 99.191406 134.65625 L 92.888672 164.11133 L 87.390625 164.11133 L 83.960938 149.90234 C 83.460975 147.7775 82.950612 144.72954 82.441406 140.7832 L 82.351562 140.08594 L 80.691406 140.08594 L 80.601562 140.7832 C 80.092357 144.72954 79.583947 147.7775 79.083984 149.90234 L 79.083984 149.9043 L 75.777344 164.11133 L 70.28125 164.11133 L 63.855469 134.65625 z "
           id="path94" />
      </g>
    </g>
    <g
       aria-label="qw"
       id="text836"
       style="font-size:63.8948px;line-height:1.25;font-family:'Source Code Pro';-inkscape-font-specification:'Source Code Pro';text-align:center;text-anchor:middle;fill:#000000;fill-opacity:1;stroke-width:1.59737">
      <g
         id="g55"
         style="opacity:1">
        <path
           style="color:#000000;font-style:normal;font-variant:normal;font-weight:normal;font-stretch:normal;font-size:medium;line-height:1.25;font-family:'Source Code Pro';-inkscape-font-specification:'Source Code Pro';font-variant-ligatures:normal;font-variant-position:normal;font-variant-caps:normal;font-variant-numeric:normal;font-variant-alternates:normal;font-variant-east-asian:normal;font-feature-settings:normal;font-variation-settings:normal;text-indent:0;text-align:center;text-decoration:none;text-decoration-line:none;text-decoration-style:solid;text-decoration-color:#000000;letter-spacing:normal;word-spacing:normal;text-transform:none;writing-mode:lr-tb;direction:ltr;text-orientation:mixed;dominant-baseline:auto;baseline-shift:baseline;text-anchor:middle;white-space:normal;shape-padding:0;shape-margin:0;inline-size:0;clip-rule:nonzero;display:inline;overflow:visible;visibility:visible;isolation:auto;mix-blend-mode:normal;color-interpolation:sRGB;color-interpolation-filters:linearRGB;solid-color:#000000;solid-opacity:1;vector-effect:none;fill:#000000;fill-opacity:1;fill-rule:nonzero;stroke-width:1.59737;stroke-linecap:butt;stroke-linejoin:miter;stroke-miterlimit:4;stroke-dasharray:none;stroke-dashoffset:0;stroke-opacity:1.0;color-rendering:auto;image-rendering:auto;shape-rendering:auto;text-rendering:auto;enable-background:accumulate;stop-color:#000000;stop-opacity:1;stroke:none;"
           d="m 48.673992,175.50976 v -11.30937 l 0.255579,-5.75054 h -0.191684 c -1.277896,1.32049 -2.790073,2.4493 -4.536531,3.38643 -1.703861,0.89453 -3.514214,1.34179 -5.431058,1.34179 -2.002037,0 -3.833688,-0.36207 -5.494953,-1.08621 -1.661265,-0.72414 -3.088248,-1.76776 -4.280951,-3.13085 -1.150107,-1.40569 -2.044634,-3.10955 -2.683582,-5.11158 -0.638948,-2.00204 -0.958422,-4.30225 -0.958422,-6.90064 0,-2.51319 0.383369,-4.77081 1.150107,-6.77285 0.809334,-2.04463 1.852949,-3.76979 3.130845,-5.17548 1.320493,-1.40569 2.83267,-2.4919 4.536531,-3.25863 1.703861,-0.76674 3.471617,-1.15011 5.303268,-1.15011 1.916844,0 3.620705,0.36207 5.111584,1.08621 1.490879,0.72414 2.981757,1.76776 4.472636,3.13085 h 0.191684 l 0.447264,-3.45032 h 4.217056 v 44.1513 z m -8.753588,-16.74043 c 3.066951,0 5.984813,-1.55477 8.753588,-4.66432 v -15.46254 c -1.405686,-1.32049 -2.790073,-2.25762 -4.153162,-2.81137 -1.320493,-0.55376 -2.662283,-0.83064 -4.025372,-0.83064 -1.363089,0 -2.640985,0.29818 -3.833688,0.89453 -1.150107,0.55375 -2.172424,1.36309 -3.066951,2.428 -0.851931,1.02232 -1.533475,2.25762 -2.044633,3.7059 -0.511159,1.44828 -0.766738,3.06695 -0.766738,4.85601 0,3.74849 0.788036,6.66635 2.364108,8.75358 1.618668,2.08723 3.876284,3.13085 6.772848,3.13085 z"
           id="path57" />
        <path
           style="color:#000000;font-style:normal;font-variant:normal;font-weight:normal;font-stretch:normal;font-size:medium;line-height:1.25;font-family:'Source Code Pro';-inkscape-font-specification:'Source Code Pro';font-variant-ligatures:normal;font-variant-position:normal;font-variant-caps:normal;font-variant-numeric:normal;font-variant-alternates:normal;font-variant-east-asian:normal;font-feature-settings:normal;font-variation-settings:normal;text-indent:0;text-align:center;text-decoration:none;text-decoration-line:none;text-decoration-style:solid;text-decoration-color:#000000;letter-spacing:normal;word-spacing:normal;text-transform:none;writing-mode:lr-tb;direction:ltr;text-orientation:mixed;dominant-baseline:auto;baseline-shift:baseline;text-anchor:middle;white-space:normal;shape-padding:0;shape-margin:0;inline-size:0;clip-rule:nonzero;display:inline;overflow:visible;visibility:visible;isolation:auto;mix-blend-mode:normal;color-interpolation:sRGB;color-interpolation-filters:linearRGB;solid-color:#000000;solid-opacity:1;vector-effect:none;fill-opacity:1;fill-rule:nonzero;stroke-width:1.59737;stroke-linecap:butt;stroke-linejoin:miter;stroke-miterlimit:4;stroke-dasharray:none;stroke-dashoffset:0;stroke-opacity:1.0;color-rendering:auto;image-rendering:auto;shape-rendering:auto;text-rendering:auto;enable-background:accumulate;stop-color:#000000;stop-opacity:1;stroke:none;"
           d="M 39.472656 129.79297 C 37.529561 129.79297 35.643325 130.20298 33.841797 131.01367 C 32.041782 131.82367 30.439029 132.97531 29.050781 134.45312 L 29.046875 134.45898 L 29.042969 134.46289 C 27.691872 135.9491 26.598991 137.76266 25.759766 139.88281 L 25.757812 139.88672 L 25.755859 139.89062 C 24.949201 141.9969 24.552734 144.3548 24.552734 146.94922 C 24.552734 149.61307 24.881405 151.99441 25.550781 154.0918 C 26.215469 156.17448 27.155073 157.97339 28.376953 159.4668 L 28.384766 159.47656 L 28.392578 159.48633 C 29.660138 160.93497 31.191674 162.0547 32.957031 162.82422 C 34.726029 163.59532 36.671199 163.97656 38.769531 163.97656 C 40.810615 163.97656 42.759265 163.49479 44.572266 162.54297 L 44.576172 162.54102 L 44.578125 162.54102 C 45.912157 161.82519 46.983524 160.87794 48.0625 159.93945 L 47.875 164.18359 L 47.875 176.30859 L 48.673828 176.30859 L 54.712891 176.30859 L 54.712891 130.56055 L 48.994141 130.56055 L 48.609375 133.5293 C 47.392407 132.52687 46.174562 131.56174 44.933594 130.95898 C 43.321712 130.17607 41.490075 129.79297 39.472656 129.79297 z M 39.472656 131.39062 C 41.288925 131.39062 42.866452 131.73112 44.236328 132.39648 C 45.644165 133.08029 47.072566 134.07728 48.517578 135.39844 L 48.748047 135.60742 L 49.951172 135.60742 L 50.398438 132.15625 L 53.115234 132.15625 L 53.115234 174.71094 L 49.472656 174.71094 L 49.472656 164.21875 L 49.763672 157.65039 L 48.398438 157.65039 L 48.164062 157.89453 C 46.948532 159.15058 45.507533 160.22802 43.830078 161.12891 C 43.829525 161.1292 43.828678 161.12862 43.828125 161.12891 C 42.233902 161.96555 40.561513 162.37891 38.769531 162.37891 C 36.86379 162.37891 35.147283 162.03655 33.59375 161.35938 C 32.041754 160.68286 30.722918 159.71851 29.607422 158.44727 C 28.531934 157.13067 27.684337 155.52524 27.072266 153.60742 C 26.463746 151.70073 26.150391 149.48214 26.150391 146.94922 C 26.150391 144.52108 26.521544 142.36633 27.246094 140.4707 C 28.02493 138.50312 29.019222 136.86564 30.222656 135.54102 C 30.223592 135.53999 30.223674 135.53814 30.224609 135.53711 C 31.474988 134.2086 32.894481 133.1923 34.498047 132.4707 C 36.104241 131.74791 37.75245 131.39062 39.472656 131.39062 z M 40.496094 134.20117 C 39.020134 134.20117 37.613366 134.52815 36.314453 135.17578 C 35.056965 135.78124 33.941524 136.66681 32.982422 137.80859 L 32.982422 137.81055 L 32.980469 137.8125 C 32.060085 138.91696 31.334751 140.23969 30.796875 141.76367 C 30.251364 143.30928 29.984375 145.01964 29.984375 146.88477 C 29.984375 150.7452 30.795136 153.84842 32.509766 156.11914 L 32.513672 156.12305 L 32.515625 156.12891 C 34.275676 158.39845 36.831517 159.56836 39.919922 159.56836 C 43.256798 159.56836 46.40336 157.85565 49.269531 154.63672 L 49.472656 154.4082 L 49.472656 138.29688 L 49.220703 138.06055 C 47.761727 136.68999 46.301755 135.69284 44.822266 135.0918 C 43.413804 134.50226 41.964664 134.20117 40.496094 134.20117 z M 40.496094 135.79883 C 41.751026 135.79883 42.982782 136.0525 44.212891 136.56836 L 44.216797 136.57031 L 44.220703 136.57031 C 45.38688 137.04407 46.615389 137.91183 47.875 139.05273 L 47.875 153.74219 C 45.270109 156.58792 42.646382 157.9707 39.919922 157.9707 C 37.216912 157.9707 35.260163 157.05286 33.783203 155.15039 C 32.347902 153.24686 31.582031 150.51843 31.582031 146.88477 C 31.582031 145.17177 31.825928 143.64587 32.302734 142.29492 C 32.786849 140.92326 33.424276 139.77576 34.207031 138.83594 L 34.208984 138.83398 C 35.038452 137.8471 35.965888 137.1169 37.007812 136.61523 L 37.013672 136.61133 L 37.019531 136.60938 C 38.103378 136.06745 39.24948 135.79883 40.496094 135.79883 z "
           id="path59" />
      </g>
      <g
         id="g61"
         style="opacity:1">
        <path
           style="color:#000000;font-style:normal;font-variant:normal;font-weight:normal;font-stretch:normal;font-size:medium;line-height:1.25;font-family:'Source Code Pro';-inkscape-font-specification:'Source Code Pro';font-variant-ligatures:normal;font-variant-position:normal;font-variant-caps:normal;font-variant-numeric:normal;font-variant-alternates:normal;font-variant-east-asian:normal;font-feature-settings:normal;font-variation-settings:normal;text-indent:0;text-align:center;text-decoration:none;text-decoration-line:none;text-decoration-style:solid;text-decoration-color:#000000;letter-spacing:normal;word-spacing:normal;text-transform:none;writing-mode:lr-tb;direction:ltr;text-orientation:mixed;dominant-baseline:auto;baseline-shift:baseline;text-anchor:middle;white-space:normal;shape-padding:0;shape-margin:0;inline-size:0;clip-rule:nonzero;display:inline;overflow:visible;visibility:visible;isolation:auto;mix-blend-mode:normal;color-interpolation:sRGB;color-interpolation-filters:linearRGB;solid-color:#000000;solid-opacity:1;vector-effect:none;fill:#000000;fill-opacity:1;fill-rule:nonzero;stroke-width:1.59737;stroke-linecap:butt;stroke-linejoin:miter;stroke-miterlimit:4;stroke-dasharray:none;stroke-dashoffset:0;stroke-opacity:1.0;color-rendering:auto;image-rendering:auto;shape-rendering:auto;text-rendering:auto;enable-background:accumulate;stop-color:#000000;stop-opacity:1;stroke:none;"
           d="m 67.13949,162.41133 -6.772849,-31.05287 h 5.239374 l 3.705898,18.01833 c 0.298176,1.49088 0.553755,2.91786 0.766738,4.28095 0.212983,1.36309 0.425965,2.79008 0.638948,4.28096 h 0.255579 c 0.212983,-1.49088 0.468562,-2.91787 0.766738,-4.28096 0.340772,-1.40568 0.681544,-2.83266 1.022316,-4.28095 L 76.59592,133.2753 h 5.239374 l 3.705898,16.10149 c 0.340772,1.49088 0.681544,2.91786 1.022317,4.28095 0.383369,1.36309 0.681544,2.79008 0.894527,4.28096 h 0.255579 c 0.255579,-1.49088 0.468562,-2.91787 0.638948,-4.28096 0.212983,-1.36309 0.468562,-2.79007 0.766738,-4.28095 l 3.705898,-18.01833 h 4.856005 l -6.645059,31.05287 h -6.772849 l -3.578109,-14.82359 c -0.511158,-2.17243 -1.022316,-5.23938 -1.533475,-9.20085 h -0.255579 c -0.511159,3.96147 -1.022317,7.02842 -1.533475,9.20085 l -3.450319,14.82359 z"
           id="path63" />
        <path
           style="color:#000000;font-style:normal;font-variant:normal;font-weight:normal;font-stretch:normal;font-size:medium;line-height:1.25;font-family:'Source Code Pro';-inkscape-font-specification:'Source Code Pro';font-variant-ligatures:normal;font-variant-position:normal;font-variant-caps:normal;font-variant-numeric:normal;font-variant-alternates:normal;font-variant-east-asian:normal;font-feature-settings:normal;font-variation-settings:normal;text-indent:0;text-align:center;text-decoration:none;text-decoration-line:none;text-decoration-style:solid;text-decoration-color:#000000;letter-spacing:normal;word-spacing:normal;text-transform:none;writing-mode:lr-tb;direction:ltr;text-orientation:mixed;dominant-baseline:auto;baseline-shift:baseline;text-anchor:middle;white-space:normal;shape-padding:0;shape-margin:0;inline-size:0;clip-rule:nonzero;display:inline;overflow:visible;visibility:visible;isolation:auto;mix-blend-mode:normal;color-interpolation:sRGB;color-interpolation-filters:linearRGB;solid-color:#000000;solid-opacity:1;vector-effect:none;fill-opacity:1;fill-rule:nonzero;stroke-width:1.59737;stroke-linecap:butt;stroke-linejoin:miter;stroke-miterlimit:4;stroke-dasharray:none;stroke-dashoffset:0;stroke-opacity:1.0;color-rendering:auto;image-rendering:auto;shape-rendering:auto;text-rendering:auto;enable-background:accumulate;stop-color:#000000;stop-opacity:1;stroke:none;"
           d="M 59.375 130.56055 L 66.496094 163.21094 L 67.138672 163.21094 L 74.546875 163.21094 L 78.140625 147.77148 L 78.140625 147.76953 C 78.43878 146.50216 78.729707 144.30666 79.023438 142.4707 C 79.31728 144.30738 79.609932 146.50383 79.908203 147.77148 L 79.908203 147.77344 L 83.634766 163.21094 L 91.681641 163.21094 L 98.667969 130.56055 L 92.173828 130.56055 L 88.335938 149.21875 L 88.335938 149.2207 C 88.035753 150.72162 87.777402 152.15978 87.5625 153.53516 L 87.5625 153.54688 L 87.560547 153.55859 C 87.537955 153.73933 87.498723 153.94388 87.474609 154.12695 C 87.419385 153.91285 87.397135 153.6761 87.337891 153.46484 L 87.332031 153.44141 C 86.99455 152.09079 86.658109 150.67708 86.320312 149.19922 L 86.320312 149.19727 L 82.470703 132.47656 L 75.964844 132.47656 L 71.984375 149.19336 C 71.644003 150.63995 71.303227 152.06487 70.962891 153.46875 L 70.960938 153.47852 L 70.958984 153.48633 C 70.937997 153.58227 70.924864 153.69056 70.904297 153.78711 C 70.891761 153.70644 70.879724 153.61539 70.867188 153.53516 C 70.652285 152.15978 70.395887 150.72162 70.095703 149.2207 L 70.09375 149.21875 L 66.257812 130.56055 L 59.375 130.56055 z M 61.357422 132.15625 L 64.955078 132.15625 L 68.529297 149.53711 C 68.825125 151.01651 69.078188 152.43165 69.289062 153.78125 C 69.501457 155.14058 69.715204 156.56306 69.927734 158.05078 L 70.025391 158.73828 L 71.666016 158.73828 L 71.763672 158.05078 C 71.973212 156.584 72.223534 155.18311 72.515625 153.8457 L 72.519531 153.83203 C 72.519794 153.83083 72.519268 153.82933 72.519531 153.82812 C 72.859197 152.42684 73.199432 151.00592 73.539062 149.5625 L 73.539062 149.56055 L 77.226562 134.07422 L 81.199219 134.07422 L 84.763672 149.55664 L 84.761719 149.55469 C 85.103595 151.0504 85.446865 152.48278 85.789062 153.85156 L 85.791016 153.86328 L 85.794922 153.87305 C 86.16818 155.20019 86.459655 156.59258 86.667969 158.05078 L 86.765625 158.73828 L 88.386719 158.73828 L 88.5 158.07422 C 88.757434 156.57252 88.972494 155.13216 89.144531 153.75586 L 89.142578 153.78125 C 89.353453 152.43165 89.606516 151.01651 89.902344 149.53711 L 89.902344 149.5332 L 93.476562 132.15625 L 96.693359 132.15625 L 90.390625 161.61328 L 84.892578 161.61328 L 81.462891 147.4043 C 80.962928 145.27945 80.452565 142.2315 79.943359 138.28516 L 79.853516 137.58789 L 78.193359 137.58789 L 78.103516 138.28516 C 77.59431 142.2315 77.0859 145.27945 76.585938 147.4043 L 76.585938 147.40625 L 73.277344 161.61328 L 67.783203 161.61328 L 61.357422 132.15625 z "
           id="path65" />
      </g>
    </g>
    <g
       aria-label="qw"
       id="text835"
       style="font-size:63.8948px;line-height:1.25;font-family:'Source Code Pro';-inkscape-font-specification:'Source Code Pro';text-align:center;text-anchor:middle;fill:#ffffff;fill-opacity:1;stroke:#ffffff;stroke-width:0.8;stroke-miterlimit:4;stroke-dasharray:none">
      <g
         id="g67"
         style="opacity:1">
        <path
           style="color:#000000;font-style:normal;font-variant:normal;font-weight:normal;font-stretch:normal;font-size:medium;line-height:1.25;font-family:'Source Code Pro';-inkscape-font-specification:'Source Code Pro';font-variant-ligatures:normal;font-variant-position:normal;font-variant-caps:normal;font-variant-numeric:normal;font-variant-alternates:normal;font-variant-east-asian:normal;font-feature-settings:normal;font-variation-settings:normal;text-indent:0;text-align:center;text-decoration:none;text-decoration-line:none;text-decoration-style:solid;text-decoration-color:#000000;letter-spacing:normal;word-spacing:normal;text-transform:none;writing-mode:lr-tb;direction:ltr;text-orientation:mixed;dominant-baseline:auto;baseline-shift:baseline;text-anchor:middle;white-space:normal;shape-padding:0;shape-margin:0;inline-size:0;clip-rule:nonzero;display:inline;overflow:visible;visibility:visible;isolation:auto;mix-blend-mode:normal;color-interpolation:sRGB;color-interpolation-filters:linearRGB;solid-color:#000000;solid-opacity:1;vector-effect:none;fill:#ffffff;fill-opacity:1;fill-rule:nonzero;stroke:none;stroke-width:0.8;stroke-linecap:butt;stroke-linejoin:miter;stroke-miterlimit:4;stroke-dasharray:none;stroke-dashoffset:0;stroke-opacity:1.0;color-rendering:auto;image-rendering:auto;shape-rendering:auto;text-rendering:auto;enable-background:accumulate;stop-color:#000000;stop-opacity:1;"
           d="m 46.800247,173.63605 v -11.30938 l 0.255579,-5.75053 h -0.191684 c -1.277896,1.32049 -2.790073,2.44929 -4.536531,3.38642 -1.703861,0.89453 -3.514214,1.34179 -5.431058,1.34179 -2.002037,0 -3.833688,-0.36207 -5.494953,-1.08621 -1.661265,-0.72414 -3.088248,-1.76776 -4.280951,-3.13085 -1.150107,-1.40568 -2.044634,-3.10954 -2.683582,-5.11158 -0.638948,-2.00204 -0.958422,-4.30225 -0.958422,-6.90064 0,-2.51319 0.383369,-4.77081 1.150107,-6.77285 0.809334,-2.04463 1.852949,-3.76979 3.130845,-5.17548 1.320493,-1.40568 2.83267,-2.49189 4.536531,-3.25863 1.703861,-0.76674 3.471617,-1.15011 5.303268,-1.15011 1.916844,0 3.620705,0.36207 5.111584,1.08621 1.490879,0.72415 2.981757,1.76776 4.472636,3.13085 H 47.3753 l 0.447264,-3.45032 h 4.217056 v 44.15131 z m -8.753588,-16.74044 c 3.066951,0 5.984813,-1.55477 8.753588,-4.66432 v -15.46254 c -1.405686,-1.32049 -2.790073,-2.25762 -4.153162,-2.81137 -1.320493,-0.55376 -2.662283,-0.83064 -4.025372,-0.83064 -1.363089,0 -2.640985,0.29818 -3.833688,0.89453 -1.150107,0.55375 -2.172424,1.36309 -3.066951,2.428 -0.851931,1.02232 -1.533475,2.25762 -2.044633,3.7059 -0.511159,1.44829 -0.766738,3.06696 -0.766738,4.85601 0,3.74849 0.788036,6.66635 2.364108,8.75358 1.618668,2.08723 3.876284,3.13085 6.772848,3.13085 z"
           id="path69" />
        <path
           style="color:#000000;font-style:normal;font-variant:normal;font-weight:normal;font-stretch:normal;font-size:medium;line-height:1.25;font-family:'Source Code Pro';-inkscape-font-specification:'Source Code Pro';font-variant-ligatures:normal;font-variant-position:normal;font-variant-caps:normal;font-variant-numeric:normal;font-variant-alternates:normal;font-variant-east-asian:normal;font-feature-settings:normal;font-variation-settings:normal;text-indent:0;text-align:center;text-decoration:none;text-decoration-line:none;text-decoration-style:solid;text-decoration-color:#000000;letter-spacing:normal;word-spacing:normal;text-transform:none;writing-mode:lr-tb;direction:ltr;text-orientation:mixed;dominant-baseline:auto;baseline-shift:baseline;text-anchor:middle;white-space:normal;shape-padding:0;shape-margin:0;inline-size:0;clip-rule:nonzero;display:inline;overflow:visible;visibility:visible;isolation:auto;mix-blend-mode:normal;color-interpolation:sRGB;color-interpolation-filters:linearRGB;solid-color:#000000;solid-opacity:1;vector-effect:none;fill:#ffffff;fill-opacity:1;fill-rule:nonzero;stroke:none;stroke-width:0.8;stroke-linecap:butt;stroke-linejoin:miter;stroke-miterlimit:4;stroke-dasharray:none;stroke-dashoffset:0;stroke-opacity:1.0;color-rendering:auto;image-rendering:auto;shape-rendering:auto;text-rendering:auto;enable-background:accumulate;stop-color:#000000;stop-opacity:1;"
           d="M 37.599609 128.31836 C 35.712145 128.31836 33.885588 128.71515 32.132812 129.50391 C 30.380796 130.29232 28.823176 131.41171 27.46875 132.85352 L 27.464844 132.85547 L 27.462891 132.85742 C 26.148334 134.30344 25.080164 136.07184 24.255859 138.1543 L 24.255859 138.15625 L 24.255859 138.1582 C 23.469128 140.21245 23.078125 142.52035 23.078125 145.07422 C 23.078125 147.70539 23.402453 150.04787 24.056641 152.09766 C 24.70848 154.14009 25.624494 155.89023 26.810547 157.33984 L 26.814453 157.3457 L 26.820312 157.35156 C 28.050505 158.7575 29.528791 159.83712 31.242188 160.58398 C 32.957408 161.33164 34.846221 161.70508 36.896484 161.70508 C 38.875551 161.70508 40.755151 161.23963 42.513672 160.31641 L 42.515625 160.31641 L 42.517578 160.31445 C 44.09493 159.46807 45.417365 158.40446 46.625 157.24609 L 46.400391 162.31836 L 46.400391 174.03516 L 46.800781 174.03516 L 52.439453 174.03516 L 52.439453 129.08398 L 47.470703 129.08398 L 47.046875 132.35547 C 45.666583 131.14613 44.28271 130.12337 42.886719 129.44531 C 41.335239 128.69174 39.566824 128.31836 37.599609 128.31836 z M 37.599609 129.11719 C 39.466083 129.11719 41.106832 129.46936 42.537109 130.16406 C 43.9864 130.86801 45.446155 131.88838 46.914062 133.23047 L 47.029297 133.33594 L 47.726562 133.33594 L 48.173828 129.88477 L 51.638672 129.88477 L 51.638672 173.23633 L 47.201172 173.23633 L 47.201172 162.33594 L 47.474609 156.17578 L 46.695312 156.17578 L 46.576172 156.29883 C 45.328718 157.58786 43.851973 158.69004 42.138672 159.60938 L 42.142578 159.60938 C 40.493376 160.47521 38.751106 160.9043 36.896484 160.9043 C 34.942675 160.9043 33.167857 160.55218 31.560547 159.85156 C 29.953135 159.1509 28.580229 158.14629 27.425781 156.82812 C 27.424545 156.82671 27.42311 156.82563 27.421875 156.82422 C 26.311384 155.46425 25.442978 153.81066 24.818359 151.85352 C 24.194651 149.89923 23.878906 147.63982 23.878906 145.07422 C 23.878906 142.60334 24.254239 140.3981 25 138.44922 L 25.001953 138.44531 C 25.795309 136.44231 26.812042 134.76408 28.050781 133.40039 L 28.052734 133.39844 C 28.05333 133.39778 28.054091 133.39714 28.054688 133.39648 C 29.340319 132.02893 30.806889 130.97675 32.460938 130.23242 C 34.115885 129.48769 35.823773 129.11719 37.599609 129.11719 z M 38.621094 132.72656 C 37.200327 132.72656 35.858062 133.04102 34.611328 133.66406 C 33.409423 134.24365 32.339684 135.08948 31.414062 136.19141 L 31.414062 136.19336 C 30.527849 137.25682 29.823367 138.53529 29.298828 140.02148 C 28.770465 141.51852 28.509766 143.18457 28.509766 145.01172 C 28.509766 148.81627 29.309613 151.82673 30.955078 154.00586 L 30.957031 154.00781 L 30.957031 154.00977 C 32.646507 156.1883 35.054232 157.29492 38.046875 157.29492 C 41.249011 157.29492 44.282056 155.66238 47.099609 152.49805 L 47.201172 152.38281 L 47.201172 136.5957 L 47.074219 136.47656 C 45.642596 135.1317 44.219467 134.16543 42.798828 133.58789 C 41.434237 133.01617 40.03708 132.72656 38.621094 132.72656 z M 38.621094 133.52734 C 39.930015 133.52734 41.216961 133.79139 42.492188 134.32617 L 42.494141 134.32617 L 42.496094 134.32812 C 43.759813 134.84151 45.06682 135.74365 46.400391 136.97461 L 46.400391 152.04883 C 43.711742 155.02786 40.942675 156.49609 38.046875 156.49609 C 35.248556 156.49609 33.141279 155.51625 31.59375 153.52344 L 31.59375 153.52148 C 30.087726 151.52623 29.310547 148.70334 29.310547 145.01172 C 29.310547 143.26076 29.55878 141.6886 30.052734 140.28906 C 30.550189 138.87961 31.210431 137.68785 32.027344 136.70703 L 32.029297 136.70508 C 32.891018 135.67979 33.865414 134.90833 34.960938 134.38086 L 34.964844 134.38086 L 34.966797 134.37891 C 36.104982 133.80981 37.316338 133.52734 38.621094 133.52734 z "
           id="path71" />
      </g>
      <g
         id="g73"
         style="opacity:1">
        <path
           style="color:#000000;font-style:normal;font-variant:normal;font-weight:normal;font-stretch:normal;font-size:medium;line-height:1.25;font-family:'Source Code Pro';-inkscape-font-specification:'Source Code Pro';font-variant-ligatures:normal;font-variant-position:normal;font-variant-caps:normal;font-variant-numeric:normal;font-variant-alternates:normal;font-variant-east-asian:normal;font-feature-settings:normal;font-variation-settings:normal;text-indent:0;text-align:center;text-decoration:none;text-decoration-line:none;text-decoration-style:solid;text-decoration-color:#000000;letter-spacing:normal;word-spacing:normal;text-transform:none;writing-mode:lr-tb;direction:ltr;text-orientation:mixed;dominant-baseline:auto;baseline-shift:baseline;text-anchor:middle;white-space:normal;shape-padding:0;shape-margin:0;inline-size:0;clip-rule:nonzero;display:inline;overflow:visible;visibility:visible;isolation:auto;mix-blend-mode:normal;color-interpolation:sRGB;color-interpolation-filters:linearRGB;solid-color:#000000;solid-opacity:1;vector-effect:none;fill:#ffffff;fill-opacity:1;fill-rule:nonzero;stroke:none;stroke-width:0.8;stroke-linecap:butt;stroke-linejoin:miter;stroke-miterlimit:4;stroke-dasharray:none;stroke-dashoffset:0;stroke-opacity:1.0;color-rendering:auto;image-rendering:auto;shape-rendering:auto;text-rendering:auto;enable-background:accumulate;stop-color:#000000;stop-opacity:1;"
           d="m 65.265745,160.53761 -6.772848,-31.05287 h 5.239373 l 3.705898,18.01833 c 0.298176,1.49088 0.553755,2.91787 0.766738,4.28096 0.212983,1.36309 0.425965,2.79007 0.638948,4.28095 h 0.255579 c 0.212983,-1.49088 0.468562,-2.91786 0.766738,-4.28095 0.340772,-1.40569 0.681544,-2.83267 1.022316,-4.28096 l 3.833688,-16.10149 h 5.239374 l 3.705898,16.10149 c 0.340772,1.49088 0.681544,2.91787 1.022317,4.28096 0.383369,1.36309 0.681544,2.79007 0.894527,4.28095 h 0.255579 c 0.255579,-1.49088 0.468562,-2.91786 0.638948,-4.28095 0.212983,-1.36309 0.468562,-2.79008 0.766738,-4.28096 l 3.705898,-18.01833 h 4.856005 L 89.1624,160.53761 h -6.772849 l -3.578109,-14.82359 c -0.511158,-2.17242 -1.022316,-5.23937 -1.533475,-9.20085 h -0.255579 c -0.511159,3.96148 -1.022317,7.02843 -1.533475,9.20085 l -3.450319,14.82359 z"
           id="path75" />
        <path
           style="color:#000000;font-style:normal;font-variant:normal;font-weight:normal;font-stretch:normal;font-size:medium;line-height:1.25;font-family:'Source Code Pro';-inkscape-font-specification:'Source Code Pro';font-variant-ligatures:normal;font-variant-position:normal;font-variant-caps:normal;font-variant-numeric:normal;font-variant-alternates:normal;font-variant-east-asian:normal;font-feature-settings:normal;font-variation-settings:normal;text-indent:0;text-align:center;text-decoration:none;text-decoration-line:none;text-decoration-style:solid;text-decoration-color:#000000;letter-spacing:normal;word-spacing:normal;text-transform:none;writing-mode:lr-tb;direction:ltr;text-orientation:mixed;dominant-baseline:auto;baseline-shift:baseline;text-anchor:middle;white-space:normal;shape-padding:0;shape-margin:0;inline-size:0;clip-rule:nonzero;display:inline;overflow:visible;visibility:visible;isolation:auto;mix-blend-mode:normal;color-interpolation:sRGB;color-interpolation-filters:linearRGB;solid-color:#000000;solid-opacity:1;vector-effect:none;fill:#ffffff;fill-opacity:1;fill-rule:nonzero;stroke:none;stroke-width:0.8;stroke-linecap:butt;stroke-linejoin:miter;stroke-miterlimit:4;stroke-dasharray:none;stroke-dashoffset:0;stroke-opacity:1.0;color-rendering:auto;image-rendering:auto;shape-rendering:auto;text-rendering:auto;enable-background:accumulate;stop-color:#000000;stop-opacity:1;"
           d="M 57.996094 129.08398 L 64.943359 160.9375 L 65.265625 160.9375 L 72.355469 160.9375 L 75.878906 145.80469 C 76.305337 143.99236 76.727715 141.19761 77.150391 138.17969 C 77.573067 141.19761 77.995444 143.99236 78.421875 145.80469 L 78.421875 145.80664 L 82.074219 160.9375 L 89.486328 160.9375 L 96.302734 129.08398 L 90.625 129.08398 L 86.853516 147.42383 C 86.554334 148.91974 86.297929 150.35341 86.083984 151.72266 L 86.082031 151.72852 L 86.082031 151.73438 C 85.971585 152.61794 85.81451 153.5734 85.667969 154.51172 C 85.487923 153.55345 85.328512 152.57993 85.074219 151.67578 C 84.735111 150.31899 84.395907 148.89835 84.056641 147.41406 L 80.279297 131.00195 L 74.40625 131.00195 L 70.5 147.41016 L 70.5 147.41211 C 70.159428 148.85954 69.817117 150.28467 69.476562 151.68945 L 69.476562 151.69336 L 69.474609 151.69922 C 69.28817 152.55151 69.149323 153.47206 68.996094 154.37305 C 68.864207 153.48003 68.731524 152.56691 68.599609 151.72266 C 68.385665 150.35341 68.12926 148.91974 67.830078 147.42383 L 64.058594 129.08398 L 57.996094 129.08398 z M 58.988281 129.88477 L 63.40625 129.88477 L 67.046875 147.58398 C 67.343876 149.06912 67.59862 150.48937 67.810547 151.8457 C 68.023235 153.20691 68.234509 154.6318 68.447266 156.12109 L 68.496094 156.46484 L 69.447266 156.46484 L 69.496094 156.12109 C 69.707306 154.64261 69.960816 153.22885 70.255859 151.87891 L 70.255859 151.875 C 70.256278 151.87309 70.257394 151.87105 70.257812 151.86914 C 70.597885 150.46624 70.937289 149.04092 71.277344 147.5957 L 71.277344 147.59375 L 75.039062 131.80078 L 79.642578 131.80078 L 83.277344 147.59375 C 83.618522 149.08635 83.959442 150.5155 84.300781 151.88086 L 84.302734 151.88672 L 84.304688 151.89258 C 84.682992 153.23766 84.976856 154.64658 85.1875 156.12109 L 85.238281 156.46484 L 86.177734 156.46484 L 86.234375 156.13281 C 86.490182 154.6406 86.702069 153.21201 86.873047 151.8457 L 86.875 151.83984 C 86.875228 151.83802 86.874772 151.83581 86.875 151.83398 C 87.086672 150.48041 87.342317 149.06381 87.638672 147.58203 L 87.636719 147.58398 L 91.277344 129.88477 L 95.3125 129.88477 L 88.839844 160.13672 L 82.705078 160.13672 L 79.201172 145.62305 L 79.201172 145.62109 C 78.695724 143.47257 78.183903 140.41597 77.673828 136.46289 L 77.628906 136.11328 L 76.669922 136.11328 L 76.625 136.46289 C 76.114819 140.41679 75.60516 143.47446 75.099609 145.62305 L 71.720703 160.13672 L 65.587891 160.13672 L 58.988281 129.88477 z "
           id="path77" />
      </g>
    </g>
  </g>
</svg>
